<svg id="Layer_1" data-name="Layer 1" xmlns="http://www.w3.org/2000/svg" width="40" height="40" viewBox="0 0 40 40"><defs><style>.cls-1{fill:#fff;}</style></defs><title>Desktop-logo-icon</title><path d="M536,409.056v3.333c-.091.518-.192,1.035-.271,1.555a19.775,19.775,0,0,1-14.739,16.282c-1.586.386-3.232.522-4.851.774h-.278c-.548-.08-1.093-.18-1.644-.236a19.613,19.613,0,0,1-17.694-15.6c-.212-.917-.35-1.85-.523-2.776v-3.333c.109-.636.2-1.274.329-1.906a20.472,20.472,0,0,1,15.944-15.9,2.146,2.146,0,0,1,2.745,1.728,4.861,4.861,0,0,1,.058,1.783,53.642,53.642,0,0,1-2.633,9.4c-1.529,4.309-3.074,8.612-4.559,12.936a15.631,15.631,0,0,0-.705,3.174c-.3,2.48,1.078,3.988,3.553,4,.139,0,.277,0,.416,0a2.267,2.267,0,0,1,2.517,1.815c.454-1.394,1.434-1.006,2.267-1.044.37-.016.742.02,1.11-.008.522-.04.953,0,.754.95.36-.339.582-.47.69-.665a1.979,1.979,0,0,1,1.7-1.026c.437-.036.877-.031,1.316-.033a2.8,2.8,0,0,0,3.1-2.614,7.45,7.45,0,0,0-.25-3.068c-1.356-4.2-2.8-8.364-4.273-12.521a75.84,75.84,0,0,1-3.2-10.751c-.459-2.354-.082-3.217,1.892-4.305h.278c.26.088.514.2.78.261,7.908,1.892,13.052,6.751,15.484,14.482A32.087,32.087,0,0,1,536,409.056Z" transform="translate(-496 -391)"/><path class="cls-1" d="M518.778,391c-1.974,1.088-2.351,1.951-1.892,4.305a75.84,75.84,0,0,0,3.2,10.751c1.472,4.157,2.917,8.325,4.273,12.521a7.45,7.45,0,0,1,.25,3.068,2.8,2.8,0,0,1-3.1,2.614c-.439,0-.879,0-1.316.033a1.979,1.979,0,0,0-1.7,1.026c-.108.195-.33.326-.69.665.2-.954-.232-.99-.754-.95-.368.028-.74-.008-1.11.008-.833.038-1.813-.35-2.267,1.044a2.267,2.267,0,0,0-2.517-1.815c-.139,0-.277,0-.416,0-2.475-.013-3.854-1.521-3.553-4a15.631,15.631,0,0,1,.705-3.174c1.485-4.324,3.03-8.627,4.559-12.936a53.642,53.642,0,0,0,2.633-9.4,4.861,4.861,0,0,0-.058-1.783,2.146,2.146,0,0,0-2.745-1.728,20.472,20.472,0,0,0-15.944,15.9c-.126.632-.22,1.27-.329,1.906V391Zm-2.287,33.014a5.06,5.06,0,0,0,.893-.292,3.533,3.533,0,0,0,1.8-2.805,6.645,6.645,0,0,0-3.456-5.912.607.607,0,0,0-.537.232c-.425.76-.79,1.554-1.2,2.326-.29.55-.669,1.059-.91,1.628a3.649,3.649,0,0,0,1.516,4.519,3.825,3.825,0,0,0,.7.247l.145-.1c-1.17-1.844-1.082-3.461.7-4.808C517.456,420.214,517.57,421.624,516.491,424.014Z" transform="translate(-496 -391)"/><path class="cls-1" d="M496,412.389c.173.926.311,1.859.523,2.776a19.613,19.613,0,0,0,17.694,15.6c.551.056,1.1.156,1.644.236H496Z" transform="translate(-496 -391)"/><path class="cls-1" d="M516.139,431c1.619-.252,3.265-.388,4.851-.774a19.775,19.775,0,0,0,14.739-16.282c.079-.52.18-1.037.271-1.555V431Z" transform="translate(-496 -391)"/><path class="cls-1" d="M536,409.056a32.087,32.087,0,0,0-.68-3.313c-2.432-7.731-7.576-12.59-15.484-14.482-.266-.064-.52-.173-.78-.261H536Z" transform="translate(-496 -391)"/><path d="M516.491,424.014c1.079-2.39.965-3.8-.346-4.961-1.779,1.347-1.867,2.964-.7,4.808l-.145.1a3.825,3.825,0,0,1-.7-.247,3.649,3.649,0,0,1-1.516-4.519c.241-.569.62-1.078.91-1.628.406-.772.771-1.566,1.2-2.326a.607.607,0,0,1,.537-.232,6.645,6.645,0,0,1,3.456,5.912,3.533,3.533,0,0,1-1.8,2.805A5.06,5.06,0,0,1,516.491,424.014Z" transform="translate(-496 -391)"/></svg>