<svg id="Layer_1" data-name="Layer 1" xmlns="http://www.w3.org/2000/svg" viewBox="0 0 1445.671 250.603"><title>Full-logo</title><path d="M1045.42,670.609c-3.582-.808-7.192-1.508-10.741-2.44-30.077-7.895-47.733-28-55.129-57.427-6.824-27.156-6.194-54.293,4.186-80.532,14.458-36.549,48.026-56.2,87.057-51.623a124.519,124.519,0,0,1,15.928,2.737c27.706,6.988,43.882,24.981,49.658,52.693a28.833,28.833,0,0,1,.269,3.694h-23.727c-.22-.276-.375-.385-.408-.523-5.506-23.44-20.372-35.207-46.525-37.545-24.079-2.154-45.277,9.383-55.934,30.523-8.96,17.773-10.6,36.959-8.51,56.268a126.617,126.617,0,0,0,7.705,31.72c7.04,18.207,21.121,28.754,40.7,30.194,9.611.706,19.72.535,29.023-1.679,22.013-5.239,35.1-22.107,37.314-45.606.331-3.517.513-7.047.806-11.158h-57.038V568.611h79.605v96.96c-4.5,0-8.857.2-13.173-.141-1.119-.089-2.681-1.729-3.047-2.954-1.881-6.282-3.438-12.66-6.418-20-1.5,1.979-2.845,4.1-4.528,5.912a65.874,65.874,0,0,1-42.939,21.353,15.235,15.235,0,0,0-2.862.864Z" transform="translate(-238.573 -420.006)"/><path d="M1298.871,607.055a86.381,86.381,0,0,0-3.99-24.344c-9.215-27.509-19.594-54.628-28.8-82.139-6.465-19.316-11.8-39.013-17.5-58.58-.908-3.115-.9-6.079,2.563-8.4,3.1-2.079,3.712-5.585,2.03-9.055-1.785-3.681-5.191-5.519-8.778-4-3.487,1.476-8.083,3.884-9.085,6.911-1.879,5.672-2.9,12.351-1.8,18.14a269.09,269.09,0,0,0,9.78,37.125c11.242,32.7,23.439,65.081,34.589,97.816a106.582,106.582,0,0,1,5.288,28.162c.728,13.134-6.28,20.31-19.333,22.077a33.251,33.251,0,0,1-7.067.276c-6.9-.556-11.906,1.753-13.99,8.653-4.335.361-4.335.361-5.964-4.387-6.857,0-13.763,0-20.67.017a3.138,3.138,0,0,0-.991.406c-.324,1.363-.658,2.77-1.4,5.879-2.243-2-4.1-3.036-5.059-4.623a11.352,11.352,0,0,0-9.9-5.964c-3.032-.11-6.093.158-9.1-.141-13.812-1.371-21.057-8.8-20.428-22.653a104.81,104.81,0,0,1,4.517-25.258c4.191-13.874,9.549-27.393,14.258-41.116,9.689-28.233,19.6-56.4,28.677-84.828,2.354-7.37,2.609-15.608,2.659-23.454.046-7.038-4.856-11.959-11.171-13.2-3.92-.77-7.074.449-8.882,4.119-1.7,3.458-1.109,6.949,1.972,9.069,3.151,2.167,3.441,4.815,2.709,7.885-2.342,9.834-4.112,19.88-7.395,29.4-11.492,33.331-23.868,66.361-35.163,99.757-3.8,11.238-6.053,23.13-7.754,34.9a35.371,35.371,0,0,0,7.022,26.8c7.122,9.427,17.121,13.416,28.548,14.057,3.663.206,5.126,1.3,4.892,5.064-.229,3.693.176,7.42.167,11.132-.009,3.482,1.193,5.549,5.076,4.951,2.431-.374,3.865.539,4.043,3.1h45.585c-.765-2.657.621-3.436,2.9-3.07,5.167.832,6.584-1.833,6.273-6.369a28.5,28.5,0,0,1,.336-4.069,12.8,12.8,0,0,1,.206-5.657c-.322-4.588-.1-4.616,4.42-4.986C1286.178,644.575,1299.625,630.137,1298.871,607.055Z" transform="translate(-238.573 -420.006)"/><path d="M942.066,665.54c-8.674,0-16.925.205-25.148-.177-1.613-.074-3.579-2.133-4.611-3.764Q869.315,593.594,826.5,525.475a14.816,14.816,0,0,0-4.5-4.935V665.273h-23.45V483.22c9.243,0,18.317-.17,27.371.178,1.41.054,3.065,2.266,4.04,3.833q42.5,68.313,84.865,136.705c.972,1.567,1.989,3.105,3.824,5.962V483.488h23.412Z" transform="translate(-238.573 -420.006)"/><path d="M1501.426,534.7H1478.44c-.524-2.558-1.006-5-1.524-7.426-3.091-14.5-11.892-23.448-26.271-26.909a68.761,68.761,0,0,0-34.064.155,29.08,29.08,0,0,0-21.914,32.048c1.048,8.829,5.946,14.871,14.132,17.4,13.5,4.173,27.248,7.561,40.895,11.266,8.611,2.337,17.434,4.077,25.805,7.08,22.51,8.074,32.916,25.266,31.418,49.038-1.38,21.908-11.965,36.661-32.221,44.684-23.452,9.288-47.331,10.66-71.227,2.406-25.187-8.7-40.379-32.066-38.611-58.3h22.861c.351,2.318.7,4.772,1.1,7.22,2.652,16.586,11.694,27.793,28.063,32.289,15.733,4.321,31.428,3.82,46.647-2.367,15.641-6.358,22.179-19.589,18.236-36.033-1.838-7.663-6.408-13.215-13.8-15.568-11.853-3.772-23.894-6.969-35.911-10.2-9.432-2.538-19.025-4.5-28.413-7.18-33.659-9.608-36.776-35.991-30.383-58.5,4.793-16.874,16.075-28.576,32.61-34.086,23.559-7.851,46.912-6.5,69.228,4.882C1494.46,496.483,1501.547,513.361,1501.426,534.7Z" transform="translate(-238.573 -420.006)"/><path d="M372.578,644.135v21.122h-134V483.469H370.514v20.944h-107.7v56.679h99.506v21.282H262.822v61.761Z" transform="translate(-238.573 -420.006)"/><path d="M1659.585,578.711h-93.971v85.506h-24.766V482.584h24.559v74.322h93.786V482.532h25.051V664.211h-24.659Z" transform="translate(-238.573 -420.006)"/><path d="M455.986,571.964l-60.644-88.722c10.574,0,20.235-.118,29.885.153,1.158.033,2.469,2.032,3.351,3.357q20.178,30.339,40.254,60.744c1.014,1.531,2.077,3.028,3.462,5.04,1.256-1.736,2.337-3.115,3.3-4.574,13.341-20.3,26.73-40.565,39.922-60.96,1.885-2.914,3.891-3.987,7.308-3.879,7.884.251,15.782.08,24.475.08-1.314,2.1-2.2,3.626-3.2,5.083Q516.842,528.2,489.492,568.05c-2.047,2.967-2.009,4.948.02,7.905q28.64,41.726,56.991,83.649c1.128,1.659,2.227,3.338,3.918,5.877-10.379,0-20.037.118-29.683-.159-1.127-.033-2.378-2.129-3.256-3.474q-21.437-32.839-42.786-65.736c-1.006-1.547-2.059-3.064-3.5-5.206-1.27,1.772-2.341,3.18-3.322,4.648q-22.218,33.236-44.359,66.524c-1.67,2.523-3.382,3.632-6.486,3.544-8.2-.231-16.413-.078-25.724-.078Z" transform="translate(-238.573 -420.006)"/><path d="M619.435,665.271V504.759H558.558V483.543h146.78v20.9H644.464V665.271Z" transform="translate(-238.573 -420.006)"/><path d="M1330.8,664.347h-24.246V483.427H1330.8Z" transform="translate(-238.573 -420.006)"/><path d="M734.271,484.472h24.293V665.145H734.271Z" transform="translate(-238.573 -420.006)"/><path id="flame" d="M1220.419,625.866c-10.181-3.726-16.032-15.284-12.275-25.037,1.679-4.358,4.251-8.376,6.476-12.517,3-5.589,6.063-11.148,9.14-16.8,12.224,5.316,22.859,22.022,22.184,35.977-.433,8.944-5.38,14.864-13.484,18.946,6.194-11.848,4.691-22.374-4.377-31.87C1218.728,604.907,1212.835,606.089,1220.419,625.866Z" transform="translate(-238.573 -420.006)"/><path class="smoke" d="M1224.738,486.808c-.439.622-.828,1.286-1.324,1.859-6.092,7.038-6.343,14.638-1.887,22.477,2.326,4.093,5.234,7.853,7.655,11.9a116.276,116.276,0,0,1,6.762,12.418c5.531,12.484,3.053,21.729-8.272,29.952.758-1.01,1.474-2.057,2.283-3.026,5.82-6.973,6.676-14.59,2.589-22.605-1.906-3.738-4.5-7.119-6.58-10.774-3.246-5.7-6.871-11.267-9.351-17.3C1212.406,501.479,1215.124,493.343,1224.738,486.808Z" transform="translate(-238.573 -420.006)"/><path class="smoke" d="M1239.6,557.473c10.024-10.193,5.157-19.346-1.21-28.642a80.315,80.315,0,0,1-7.838-14.058c-3.629-8.62-1.334-15.354,7.436-21.848-.883,1.476-1.112,1.964-1.433,2.381-5.691,7.373-5.813,12.152-.7,20.789,3.847,6.493,8.158,12.8,11.21,19.655C1250.919,544.405,1248.091,551.873,1239.6,557.473Z" transform="translate(-238.573 -420.006)"/><path class="smoke" d="M1215.137,492.005c-8.609,11.8-8.439,15.991-.911,27.452a100.023,100.023,0,0,1,9.419,17.224c3.03,7.516.691,14.016-6.172,19.394,8.447-10.967,2.367-19.649-3.732-28.449a72.331,72.331,0,0,1-6.036-10.516C1202.875,506.785,1204.763,499.85,1215.137,492.005Z" transform="translate(-238.573 -420.0006)"/></svg>