<svg id="svg" version="1.1" width="400" height="400" xmlns="http://www.w3.org/2000/svg" xmlns:xlink="http://www.w3.org/1999/xlink" style="display: block;"><g id="svgg"><path id="path0" d="M163.200 0.400 C 163.200 0.651,160.696 0.800,156.489 0.800 C 149.207 0.800,148.332 1.022,147.838 2.991 L 147.585 4.000 142.192 4.000 C 136.389 4.000,135.200 4.408,135.200 6.400 C 135.200 7.146,134.933 7.200,131.229 7.200 C 126.907 7.200,126.000 7.584,126.000 9.410 C 126.000 10.309,125.845 10.370,123.300 10.482 C 120.716 10.595,120.574 10.654,120.000 11.852 C 119.453 12.994,119.196 13.122,117.085 13.315 C 114.537 13.548,113.711 14.015,113.524 15.329 C 113.416 16.089,113.074 16.231,110.835 16.445 C 108.177 16.699,107.200 17.353,107.200 18.876 C 107.200 19.488,106.855 19.600,104.974 19.600 C 102.229 19.600,101.341 20.046,101.001 21.597 C 100.746 22.756,100.656 22.800,98.542 22.800 C 95.716 22.800,94.800 23.293,94.800 24.814 L 94.800 26.000 92.262 26.000 C 89.512 26.000,88.400 26.664,88.400 28.306 C 88.400 28.963,88.116 29.177,87.113 29.275 C 86.047 29.378,85.762 29.624,85.455 30.700 C 85.106 31.924,84.976 32.000,83.242 32.006 C 80.794 32.014,79.433 32.735,79.273 34.109 C 79.191 34.823,78.910 35.200,78.462 35.200 C 77.352 35.200,76.000 36.375,76.000 37.340 C 76.000 38.004,75.665 38.333,74.700 38.617 C 73.723 38.905,73.305 39.323,73.017 40.300 C 72.647 41.557,72.564 41.600,70.491 41.600 C 67.838 41.600,66.939 42.057,66.606 43.573 C 66.412 44.457,66.089 44.783,65.314 44.876 C 64.746 44.944,64.128 45.315,63.940 45.700 C 63.753 46.085,63.446 46.715,63.257 47.100 C 63.069 47.485,62.574 47.864,62.157 47.943 C 61.009 48.160,60.400 48.801,60.400 49.791 C 60.400 50.457,60.069 50.778,59.100 51.052 C 58.140 51.323,57.705 51.740,57.435 52.645 C 57.174 53.525,56.722 53.974,55.835 54.235 C 54.945 54.498,54.498 54.945,54.235 55.835 C 53.974 56.722,53.525 57.174,52.645 57.435 C 51.740 57.705,51.323 58.140,51.052 59.100 C 50.778 60.069,50.457 60.400,49.791 60.400 C 48.801 60.400,48.160 61.009,47.943 62.157 C 47.864 62.574,47.485 63.069,47.100 63.257 C 46.715 63.446,46.085 63.753,45.700 63.940 C 45.315 64.128,44.944 64.746,44.876 65.314 C 44.783 66.089,44.457 66.412,43.573 66.606 C 42.057 66.939,41.600 67.838,41.600 70.491 C 41.600 72.564,41.557 72.647,40.300 73.017 C 39.323 73.305,38.905 73.723,38.617 74.700 C 38.333 75.665,38.004 76.000,37.340 76.000 C 36.375 76.000,35.200 77.352,35.200 78.462 C 35.200 78.910,34.823 79.191,34.109 79.273 C 32.733 79.433,32.014 80.795,32.006 83.257 C 32.001 84.945,31.901 85.138,30.904 85.388 C 29.640 85.706,29.215 86.234,29.206 87.500 C 29.202 88.176,28.966 88.400,28.262 88.400 C 26.679 88.400,26.000 89.580,26.000 92.331 L 26.000 94.800 24.814 94.800 C 23.293 94.800,22.800 95.716,22.800 98.542 C 22.800 100.656,22.756 100.746,21.597 101.001 C 20.046 101.341,19.600 102.229,19.600 104.974 C 19.600 106.855,19.488 107.200,18.876 107.200 C 17.353 107.200,16.699 108.177,16.445 110.835 C 16.231 113.074,16.089 113.416,15.329 113.524 C 14.015 113.711,13.548 114.537,13.315 117.085 C 13.122 119.196,12.994 119.453,11.852 120.000 C 10.654 120.574,10.595 120.716,10.482 123.300 C 10.370 125.845,10.309 126.000,9.410 126.000 C 7.584 126.000,7.200 126.907,7.200 131.229 C 7.200 134.933,7.146 135.200,6.400 135.200 C 4.408 135.200,4.000 136.389,4.000 142.192 L 4.000 147.585 2.991 147.838 C 1.102 148.312,0.800 149.310,0.800 155.089 C 0.800 158.363,0.647 160.400,0.400 160.400 C 0.136 160.400,0.000 173.867,0.000 200.000 C 0.000 226.133,0.136 239.600,0.400 239.600 C 0.647 239.600,0.800 241.637,0.800 244.911 C 0.800 250.690,1.102 251.688,2.991 252.162 L 4.000 252.415 4.000 257.808 C 4.000 263.611,4.408 264.800,6.400 264.800 C 7.146 264.800,7.200 265.067,7.200 268.771 C 7.200 273.093,7.584 274.000,9.410 274.000 C 10.309 274.000,10.370 274.155,10.482 276.700 C 10.595 279.284,10.654 279.426,11.852 280.000 C 12.994 280.547,13.122 280.804,13.315 282.915 C 13.548 285.463,14.015 286.289,15.329 286.476 C 16.144 286.592,16.213 286.865,16.400 290.732 C 16.608 295.035,17.047 296.000,18.794 296.000 C 19.170 296.000,19.593 296.533,19.817 297.291 C 20.106 298.263,20.520 298.672,21.500 298.948 C 22.762 299.305,22.800 299.380,22.800 301.484 C 22.800 304.284,23.296 305.200,24.814 305.200 L 26.000 305.200 26.000 307.738 C 26.000 310.500,26.664 311.600,28.331 311.600 C 28.964 311.600,29.202 311.845,29.206 312.500 C 29.215 313.766,29.640 314.294,30.904 314.612 C 31.901 314.862,32.001 315.055,32.006 316.743 C 32.014 319.205,32.733 320.567,34.109 320.727 C 34.823 320.809,35.200 321.090,35.200 321.538 C 35.200 322.648,36.375 324.000,37.340 324.000 C 38.004 324.000,38.333 324.335,38.617 325.300 C 38.905 326.277,39.323 326.695,40.300 326.983 C 41.557 327.353,41.600 327.436,41.600 329.509 C 41.600 332.162,42.057 333.061,43.573 333.394 C 44.457 333.588,44.783 333.911,44.876 334.686 C 44.989 335.625,45.326 335.932,47.200 336.806 C 47.530 336.960,47.864 337.426,47.943 337.843 C 48.160 338.991,48.801 339.600,49.791 339.600 C 50.457 339.600,50.778 339.931,51.052 340.900 C 51.323 341.860,51.740 342.295,52.645 342.565 C 53.525 342.826,53.974 343.278,54.235 344.165 C 54.498 345.055,54.945 345.502,55.835 345.765 C 56.722 346.026,57.174 346.475,57.435 347.355 C 57.703 348.254,58.141 348.677,59.078 348.942 C 60.025 349.209,60.388 349.565,60.478 350.311 C 60.589 351.227,60.928 351.533,62.800 352.406 C 63.130 352.560,63.464 353.026,63.543 353.443 C 63.761 354.599,64.403 355.200,65.417 355.200 C 66.114 355.200,66.400 355.491,66.601 356.403 C 66.939 357.943,67.829 358.400,70.491 358.400 C 72.564 358.400,72.647 358.443,73.017 359.700 C 73.305 360.677,73.723 361.095,74.700 361.383 C 75.665 361.667,76.000 361.996,76.000 362.660 C 76.000 363.625,77.352 364.800,78.462 364.800 C 78.910 364.800,79.191 365.177,79.273 365.891 C 79.433 367.265,80.794 367.986,83.242 367.994 C 84.976 368.000,85.106 368.076,85.455 369.300 C 85.762 370.376,86.047 370.622,87.113 370.725 C 88.150 370.826,88.400 371.028,88.400 371.763 C 88.400 373.322,89.592 374.000,92.331 374.000 L 94.800 374.000 94.800 375.186 C 94.800 376.707,95.716 377.200,98.542 377.200 C 100.656 377.200,100.746 377.244,101.001 378.403 C 101.341 379.954,102.229 380.400,104.974 380.400 C 106.855 380.400,107.200 380.512,107.200 381.124 C 107.200 382.647,108.177 383.301,110.835 383.555 C 113.074 383.769,113.416 383.911,113.524 384.671 C 113.711 385.985,114.537 386.452,117.085 386.685 C 119.196 386.878,119.453 387.006,120.000 388.148 C 120.574 389.346,120.716 389.405,123.300 389.518 C 125.845 389.630,126.000 389.691,126.000 390.590 C 126.000 392.416,126.907 392.800,131.229 392.800 C 134.933 392.800,135.200 392.854,135.200 393.600 C 135.200 395.592,136.389 396.000,142.192 396.000 L 147.585 396.000 147.838 397.009 C 148.332 398.978,149.207 399.200,156.489 399.200 C 160.696 399.200,163.200 399.349,163.200 399.600 C 163.200 399.864,175.733 400.000,200.000 400.000 C 224.267 400.000,236.800 399.864,236.800 399.600 C 236.800 399.349,239.304 399.200,243.511 399.200 C 250.793 399.200,251.668 398.978,252.162 397.009 L 252.415 396.000 257.808 396.000 C 263.611 396.000,264.800 395.592,264.800 393.600 C 264.800 392.854,265.067 392.800,268.771 392.800 C 273.093 392.800,274.000 392.416,274.000 390.590 C 274.000 389.691,274.155 389.630,276.700 389.518 C 279.284 389.405,279.426 389.346,280.000 388.148 C 280.547 387.006,280.804 386.878,282.915 386.685 C 285.463 386.452,286.289 385.985,286.476 384.671 C 286.592 383.856,286.865 383.787,290.732 383.600 C 295.035 383.392,296.000 382.953,296.000 381.206 C 296.000 380.830,296.533 380.407,297.291 380.183 C 298.263 379.894,298.672 379.480,298.948 378.500 C 299.305 377.238,299.380 377.200,301.484 377.200 C 304.284 377.200,305.200 376.704,305.200 375.186 L 305.200 374.000 307.738 374.000 C 310.488 374.000,311.600 373.336,311.600 371.694 C 311.600 371.037,311.884 370.823,312.887 370.725 C 313.953 370.622,314.238 370.376,314.545 369.300 C 314.894 368.076,315.024 368.000,316.758 367.994 C 319.206 367.986,320.567 367.265,320.727 365.891 C 320.809 365.177,321.090 364.800,321.538 364.800 C 322.648 364.800,324.000 363.625,324.000 362.660 C 324.000 361.996,324.335 361.667,325.300 361.383 C 326.277 361.095,326.695 360.677,326.983 359.700 C 327.353 358.443,327.436 358.400,329.509 358.400 C 332.171 358.400,333.061 357.943,333.399 356.403 C 333.600 355.491,333.886 355.200,334.583 355.200 C 335.597 355.200,336.239 354.599,336.457 353.443 C 336.536 353.026,336.870 352.560,337.200 352.406 C 339.072 351.533,339.411 351.227,339.522 350.311 C 339.612 349.565,339.975 349.209,340.922 348.942 C 341.859 348.677,342.297 348.254,342.565 347.355 C 342.826 346.475,343.278 346.026,344.165 345.765 C 345.055 345.502,345.502 345.055,345.765 344.165 C 346.026 343.278,346.475 342.826,347.355 342.565 C 348.260 342.295,348.677 341.860,348.948 340.900 C 349.222 339.931,349.543 339.600,350.209 339.600 C 351.199 339.600,351.840 338.991,352.057 337.843 C 352.187 337.155,352.603 336.827,354.400 335.997 C 354.730 335.844,355.056 335.254,355.124 334.686 C 355.217 333.911,355.543 333.588,356.427 333.394 C 357.943 333.061,358.400 332.162,358.400 329.509 C 358.400 327.436,358.443 327.353,359.700 326.983 C 360.677 326.695,361.095 326.277,361.383 325.300 C 361.667 324.335,361.996 324.000,362.660 324.000 C 363.625 324.000,364.800 322.648,364.800 321.538 C 364.800 321.090,365.177 320.809,365.891 320.727 C 367.267 320.567,367.986 319.205,367.994 316.743 C 367.999 315.055,368.099 314.862,369.096 314.612 C 370.360 314.294,370.785 313.766,370.794 312.500 C 370.798 311.824,371.034 311.600,371.738 311.600 C 373.321 311.600,374.000 310.420,374.000 307.669 L 374.000 305.200 375.186 305.200 C 376.704 305.200,377.200 304.284,377.200 301.484 C 377.200 299.380,377.238 299.305,378.500 298.948 C 379.480 298.672,379.894 298.263,380.183 297.291 C 380.407 296.533,380.830 296.000,381.206 296.000 C 382.953 296.000,383.392 295.035,383.600 290.732 C 383.787 286.865,383.856 286.592,384.671 286.476 C 385.985 286.289,386.452 285.463,386.685 282.915 C 386.878 280.804,387.006 280.547,388.148 280.000 C 389.346 279.426,389.405 279.284,389.518 276.700 C 389.630 274.155,389.691 274.000,390.590 274.000 C 392.416 274.000,392.800 273.093,392.800 268.771 C 392.800 265.067,392.854 264.800,393.600 264.800 C 395.592 264.800,396.000 263.611,396.000 257.808 L 396.000 252.415 397.009 252.162 C 398.898 251.688,399.200 250.690,399.200 244.911 C 399.200 241.637,399.353 239.600,399.600 239.600 C 399.864 239.600,400.000 226.133,400.000 200.000 C 400.000 173.867,399.864 160.400,399.600 160.400 C 399.353 160.400,399.200 158.363,399.200 155.089 C 399.200 149.310,398.898 148.312,397.009 147.838 L 396.000 147.585 396.000 142.192 C 396.000 136.389,395.592 135.200,393.600 135.200 C 392.854 135.200,392.800 134.933,392.800 131.229 C 392.800 126.907,392.416 126.000,390.590 126.000 C 389.691 126.000,389.630 125.845,389.518 123.300 C 389.405 120.716,389.346 120.574,388.148 120.000 C 387.006 119.453,386.878 119.196,386.685 117.085 C 386.452 114.537,385.985 113.711,384.671 113.524 C 383.911 113.416,383.769 113.074,383.555 110.835 C 383.301 108.177,382.647 107.200,381.124 107.200 C 380.512 107.200,380.400 106.855,380.400 104.974 C 380.400 102.229,379.954 101.341,378.403 101.001 C 377.244 100.746,377.200 100.656,377.200 98.542 C 377.200 95.716,376.707 94.800,375.186 94.800 L 374.000 94.800 374.000 92.262 C 374.000 89.500,373.336 88.400,371.669 88.400 C 371.036 88.400,370.798 88.155,370.794 87.500 C 370.785 86.234,370.360 85.706,369.096 85.388 C 368.099 85.138,367.999 84.945,367.994 83.257 C 367.986 80.795,367.267 79.433,365.891 79.273 C 365.177 79.191,364.800 78.910,364.800 78.462 C 364.800 77.352,363.625 76.000,362.660 76.000 C 361.996 76.000,361.667 75.665,361.383 74.700 C 361.095 73.723,360.677 73.305,359.700 73.017 C 358.443 72.647,358.400 72.564,358.400 70.491 C 358.400 67.829,357.943 66.939,356.403 66.601 C 355.491 66.400,355.200 66.114,355.200 65.417 C 355.200 64.403,354.599 63.761,353.443 63.543 C 353.026 63.464,352.531 63.085,352.343 62.700 C 352.154 62.315,351.847 61.685,351.660 61.300 C 351.472 60.915,350.866 60.545,350.311 60.478 C 349.565 60.388,349.209 60.025,348.942 59.078 C 348.677 58.141,348.254 57.703,347.355 57.435 C 346.475 57.174,346.026 56.722,345.765 55.835 C 345.502 54.945,345.055 54.498,344.165 54.235 C 343.278 53.974,342.826 53.525,342.565 52.645 C 342.295 51.740,341.860 51.323,340.900 51.052 C 339.931 50.778,339.600 50.457,339.600 49.791 C 339.600 48.801,338.991 48.160,337.843 47.943 C 337.426 47.864,336.931 47.485,336.743 47.100 C 336.554 46.715,336.247 46.085,336.060 45.700 C 335.872 45.315,335.254 44.944,334.686 44.876 C 333.911 44.783,333.588 44.457,333.394 43.573 C 333.061 42.057,332.162 41.600,329.509 41.600 C 327.436 41.600,327.353 41.557,326.983 40.300 C 326.695 39.323,326.277 38.905,325.300 38.617 C 324.335 38.333,324.000 38.004,324.000 37.340 C 324.000 36.375,322.648 35.200,321.538 35.200 C 321.090 35.200,320.809 34.823,320.727 34.109 C 320.567 32.735,319.206 32.014,316.758 32.006 C 315.024 32.000,314.894 31.924,314.545 30.700 C 314.238 29.624,313.953 29.378,312.887 29.275 C 311.850 29.174,311.600 28.972,311.600 28.237 C 311.600 26.678,310.408 26.000,307.669 26.000 L 305.200 26.000 305.200 24.814 C 305.200 23.293,304.284 22.800,301.458 22.800 C 299.344 22.800,299.254 22.756,298.999 21.597 C 298.659 20.046,297.771 19.600,295.026 19.600 C 293.145 19.600,292.800 19.488,292.800 18.876 C 292.800 17.353,291.823 16.699,289.165 16.445 C 286.926 16.231,286.584 16.089,286.476 15.329 C 286.289 14.015,285.463 13.548,282.915 13.315 C 280.804 13.122,280.547 12.994,280.000 11.852 C 279.426 10.654,279.284 10.595,276.700 10.482 C 274.155 10.370,274.000 10.309,274.000 9.410 C 274.000 7.584,273.093 7.200,268.771 7.200 C 265.067 7.200,264.800 7.146,264.800 6.400 C 264.800 4.408,263.611 4.000,257.808 4.000 L 252.415 4.000 252.162 2.991 C 251.668 1.022,250.793 0.800,243.511 0.800 C 239.304 0.800,236.800 0.651,236.800 0.400 C 236.800 0.149,234.200 0.000,229.800 0.000 C 225.400 0.000,222.800 0.149,222.800 0.400 C 222.800 0.620,221.945 0.802,220.900 0.805 C 218.021 0.814,217.274 1.138,216.743 2.607 C 216.398 3.560,215.955 3.989,215.148 4.150 C 214.309 4.318,213.948 4.691,213.702 5.639 C 213.451 6.606,213.048 7.009,211.987 7.352 C 210.828 7.726,210.579 8.014,210.475 9.100 C 210.365 10.239,210.206 10.400,209.189 10.400 C 207.695 10.400,207.200 11.332,207.200 14.142 C 207.200 16.256,207.156 16.346,205.997 16.601 C 204.043 17.030,204.000 17.382,204.000 32.800 C 204.000 48.218,204.043 48.570,205.997 48.999 L 207.200 49.264 207.200 54.632 C 207.200 60.402,207.611 61.600,209.589 61.600 C 210.334 61.600,210.385 61.931,210.489 67.500 L 210.600 73.400 211.863 73.772 L 213.127 74.145 213.263 79.612 C 213.407 85.376,213.667 86.239,215.329 86.476 C 216.144 86.592,216.213 86.865,216.400 90.732 C 216.611 95.083,217.042 96.000,218.876 96.000 C 219.521 96.000,219.600 96.393,219.600 99.574 C 219.600 104.131,219.978 105.200,221.590 105.200 L 222.800 105.200 222.800 107.600 C 222.800 110.209,223.635 111.600,225.200 111.600 C 225.962 111.600,226.000 111.867,226.000 117.171 C 226.000 123.089,226.271 124.000,228.029 124.000 C 228.720 124.000,228.805 124.321,228.847 127.100 C 228.917 131.652,229.176 132.501,230.700 133.172 C 231.892 133.697,232.000 133.896,232.006 135.572 C 232.014 138.007,232.738 139.367,234.109 139.527 L 235.200 139.653 235.200 143.201 C 235.200 147.582,235.561 148.640,237.176 148.995 L 238.400 149.264 238.400 152.943 C 238.400 157.056,238.947 158.400,240.623 158.400 C 241.591 158.400,241.600 158.435,241.600 162.226 C 241.600 166.433,241.901 167.388,243.342 167.750 C 244.193 167.963,244.346 168.308,244.653 170.696 C 244.986 173.292,245.052 173.415,246.300 173.783 L 247.600 174.165 247.640 177.383 C 247.693 181.660,247.959 182.483,249.511 183.172 L 250.800 183.744 250.800 187.046 C 250.800 191.193,251.208 192.342,252.793 192.659 L 254.000 192.900 254.000 196.676 C 254.000 200.996,254.292 201.798,255.986 202.137 L 257.200 202.380 257.200 206.190 C 257.200 210.278,257.782 211.600,259.582 211.600 C 260.268 211.600,260.378 211.928,260.482 214.300 C 260.596 216.919,260.639 217.017,261.900 217.572 L 263.200 218.144 263.240 221.372 C 263.294 225.754,263.549 226.518,265.112 226.983 L 266.400 227.365 266.406 230.783 C 266.413 234.611,266.925 236.053,268.403 236.399 C 269.369 236.626,269.406 236.762,269.600 240.750 C 269.811 245.084,270.242 246.000,272.076 246.000 C 272.724 246.000,272.800 246.401,272.800 249.826 C 272.800 254.271,273.146 255.200,274.801 255.200 L 275.973 255.200 276.086 259.500 L 276.200 263.800 277.491 264.400 C 278.770 264.994,278.783 265.031,278.839 268.000 C 278.924 272.554,279.175 273.334,280.700 273.783 L 282.000 274.165 282.000 282.257 C 282.000 291.254,282.201 292.300,283.993 292.659 L 285.200 292.900 285.200 300.000 L 285.200 307.100 283.993 307.341 C 282.403 307.659,282.000 308.807,282.000 313.018 C 282.000 316.261,281.964 316.394,281.016 316.632 C 279.573 316.994,279.229 317.610,278.943 320.341 C 278.739 322.289,278.545 322.800,278.005 322.800 C 277.087 322.800,276.000 324.063,276.000 325.131 C 276.000 325.784,275.759 326.000,275.029 326.000 C 273.884 326.000,272.800 326.961,272.800 327.975 C 272.800 328.605,272.310 328.717,268.815 328.885 C 264.658 329.085,263.736 329.441,263.524 330.929 C 263.400 331.799,263.388 331.800,250.000 332.000 C 235.719 332.213,235.795 332.203,235.409 333.959 C 235.167 335.060,235.043 335.117,232.551 335.275 C 229.814 335.450,229.217 335.846,229.206 337.500 C 229.202 338.176,228.966 338.400,228.262 338.400 C 227.119 338.400,226.000 339.554,226.000 340.731 C 226.000 341.376,225.758 341.600,225.062 341.600 C 223.520 341.600,222.800 342.788,222.800 345.331 C 222.800 348.840,221.423 348.658,221.056 345.100 C 220.789 342.521,220.173 341.600,218.714 341.600 C 218.217 341.600,217.902 341.208,217.737 340.386 C 217.344 338.418,217.163 338.400,198.303 338.400 C 179.354 338.400,179.389 338.396,179.128 340.373 C 179.038 341.060,178.657 341.437,177.834 341.656 C 176.274 342.071,176.013 342.590,176.006 345.300 C 176.000 347.485,175.950 347.600,175.000 347.600 C 174.050 347.600,174.000 347.485,173.994 345.300 C 173.987 342.591,173.726 342.071,172.166 341.654 C 171.291 341.421,170.950 341.051,170.800 340.171 C 170.646 339.270,170.301 338.912,169.304 338.618 C 168.357 338.340,167.895 337.893,167.587 336.961 C 167.119 335.543,166.367 335.214,163.583 335.205 C 161.884 335.200,161.741 335.116,161.383 333.912 C 160.847 332.109,160.652 332.085,146.372 332.040 L 133.744 332.000 133.172 330.700 C 132.503 329.179,131.651 328.917,127.150 328.847 C 124.103 328.800,124.100 328.799,123.863 327.615 C 123.679 326.693,123.334 326.354,122.313 326.089 C 121.281 325.822,120.957 325.498,120.800 324.575 C 120.646 323.669,120.303 323.312,119.300 323.017 C 118.099 322.664,118.000 322.506,118.000 320.943 C 118.000 318.520,117.379 317.198,115.996 316.676 L 114.800 316.225 114.800 312.512 C 114.800 308.517,114.205 307.200,112.400 307.200 C 111.630 307.200,111.600 306.933,111.600 300.000 C 111.600 293.067,111.630 292.800,112.400 292.800 C 114.589 292.800,114.800 291.906,114.800 282.627 L 114.800 274.053 115.891 273.927 C 117.468 273.744,117.987 272.363,117.994 268.332 L 118.000 264.864 119.167 264.607 C 120.677 264.276,120.853 263.773,121.101 259.100 C 121.299 255.341,121.341 255.200,122.239 255.200 C 123.627 255.200,124.000 254.063,124.000 249.826 C 124.000 246.401,124.076 246.000,124.724 246.000 C 126.559 246.000,126.989 245.086,127.200 240.734 L 127.400 236.600 128.521 236.471 C 130.024 236.299,130.400 235.169,130.400 230.824 L 130.400 227.300 131.607 227.059 C 133.192 226.742,133.600 225.593,133.600 221.446 L 133.600 218.144 134.889 217.572 C 136.290 216.950,136.696 216.023,136.760 213.300 C 136.793 211.901,136.937 211.600,137.571 211.600 C 139.208 211.600,139.600 210.587,139.600 206.361 L 139.600 202.380 140.814 202.137 C 142.511 201.798,142.800 200.996,142.800 196.626 C 142.800 193.067,142.856 192.800,143.600 192.800 C 145.413 192.800,146.000 191.486,146.000 187.432 L 146.000 183.664 147.224 183.395 C 148.841 183.040,149.200 181.982,149.200 177.574 C 149.200 174.077,149.221 174.000,150.151 174.000 C 151.525 174.000,152.045 173.140,152.288 170.465 C 152.485 168.287,152.600 168.057,153.750 167.550 C 155.179 166.920,155.538 165.652,155.577 161.100 C 155.597 158.708,155.688 158.400,156.371 158.400 C 158.004 158.400,158.400 157.384,158.400 153.203 L 158.400 149.264 159.603 148.999 C 161.297 148.627,161.600 147.781,161.600 143.426 C 161.600 139.635,161.609 139.600,162.577 139.600 C 164.250 139.600,164.800 138.255,164.800 134.161 L 164.800 130.500 165.954 130.269 C 167.294 130.001,168.000 128.467,168.000 125.823 C 168.000 124.298,168.104 124.135,169.300 123.783 C 170.825 123.334,171.076 122.554,171.161 118.000 C 171.217 115.031,171.230 114.994,172.509 114.400 L 173.800 113.800 173.914 109.500 L 174.027 105.200 175.199 105.200 C 176.854 105.200,177.200 104.271,177.200 99.826 C 177.200 96.401,177.276 96.000,177.924 96.000 C 179.758 96.000,180.189 95.084,180.400 90.750 C 180.594 86.762,180.631 86.626,181.597 86.399 C 183.222 86.018,183.588 84.680,183.594 79.100 L 183.600 74.000 184.551 74.000 C 186.299 74.000,186.590 73.088,186.738 67.139 C 186.865 62.086,186.941 61.600,187.610 61.600 C 189.324 61.600,189.600 60.659,189.600 54.803 L 189.600 49.264 190.803 48.999 C 192.757 48.570,192.800 48.218,192.800 32.800 C 192.800 17.382,192.757 17.030,190.803 16.601 C 189.623 16.341,189.600 16.289,189.600 13.848 C 189.600 11.174,189.180 10.400,187.731 10.400 C 187.041 10.400,186.744 10.088,186.492 9.100 C 186.243 8.120,185.855 7.708,184.918 7.428 C 184.017 7.158,183.579 6.718,183.328 5.828 C 183.078 4.942,182.639 4.498,181.755 4.235 C 180.879 3.975,180.425 3.521,180.165 2.645 C 179.895 1.740,179.460 1.323,178.500 1.052 C 177.785 0.850,177.200 0.530,177.200 0.342 C 177.200 0.154,174.050 0.000,170.200 0.000 C 165.800 0.000,163.200 0.149,163.200 0.400 M189.200 239.200 C 188.512 239.888,188.400 240.533,188.400 243.810 L 188.400 247.620 187.169 247.866 C 185.711 248.158,185.200 249.217,185.200 251.943 C 185.200 253.727,185.127 253.856,183.912 254.217 C 182.469 254.646,182.103 255.482,182.040 258.500 C 182.004 260.204,181.905 260.400,181.080 260.400 C 179.910 260.400,179.200 261.107,179.200 262.272 C 179.200 262.937,178.902 263.256,178.100 263.448 C 176.258 263.888,176.000 264.330,176.000 267.049 C 176.000 269.333,175.916 269.600,175.200 269.600 C 173.635 269.600,172.800 270.991,172.800 273.600 C 172.800 275.878,172.751 276.000,171.823 276.000 C 170.782 276.000,169.600 277.309,169.600 278.462 C 169.600 278.910,169.223 279.191,168.509 279.273 C 166.938 279.456,166.413 280.839,166.406 284.817 L 166.400 288.235 165.100 288.617 C 163.398 289.118,163.296 289.678,163.287 298.600 C 163.278 307.120,163.383 307.669,165.112 308.183 L 166.400 308.565 166.400 312.194 C 166.400 316.145,166.853 317.326,168.531 317.747 C 169.165 317.906,169.604 318.418,169.855 319.291 C 170.143 320.295,170.497 320.644,171.386 320.799 C 172.248 320.949,172.622 321.297,172.854 322.166 C 173.210 323.496,173.811 323.985,175.100 323.994 C 175.776 323.998,176.000 324.234,176.000 324.938 C 176.000 325.983,176.993 327.043,178.175 327.259 C 178.653 327.347,179.075 327.887,179.278 328.670 C 179.529 329.639,179.889 330.000,180.804 330.201 C 181.625 330.381,182.078 330.770,182.246 331.441 C 182.609 332.889,183.915 333.600,186.206 333.600 C 188.145 333.600,188.251 333.657,188.617 334.889 C 189.218 336.911,194.614 337.443,195.611 335.579 C 197.054 332.884,195.736 326.000,193.777 326.000 C 192.849 326.000,192.800 325.878,192.800 323.600 C 192.800 320.991,191.965 319.600,190.400 319.600 C 189.652 319.600,189.600 319.333,189.600 315.480 C 189.600 311.101,189.341 310.400,187.720 310.400 C 186.854 310.400,186.800 310.246,186.800 307.800 C 186.800 305.354,186.854 305.200,187.720 305.200 C 189.181 305.200,189.600 304.431,189.600 301.752 C 189.600 299.311,189.623 299.259,190.803 298.999 C 192.343 298.661,192.800 297.771,192.800 295.109 C 192.800 293.036,192.843 292.953,194.100 292.583 C 195.072 292.297,195.495 291.877,195.777 290.919 C 196.058 289.967,196.417 289.608,197.177 289.519 C 197.905 289.434,198.412 288.967,198.933 287.900 C 199.695 286.341,200.800 285.874,200.800 287.111 C 200.800 288.244,201.966 289.600,202.940 289.600 C 203.604 289.600,203.933 289.935,204.217 290.900 C 204.505 291.877,204.923 292.295,205.900 292.583 L 207.200 292.965 207.200 296.709 C 207.200 300.995,207.494 301.799,209.186 302.137 L 210.400 302.380 210.400 307.800 L 210.400 313.220 209.186 313.463 C 207.494 313.801,207.200 314.605,207.200 318.891 L 207.200 322.635 205.900 323.017 C 204.928 323.303,204.505 323.723,204.223 324.681 C 203.944 325.628,203.581 325.993,202.832 326.081 C 200.800 326.320,199.813 333.493,201.522 335.604 C 203.150 337.613,210.727 337.091,211.372 334.925 C 211.641 334.022,212.082 333.577,212.961 333.326 C 213.855 333.069,214.274 332.636,214.546 331.688 C 214.893 330.478,215.028 330.400,216.758 330.395 C 219.615 330.386,220.362 330.058,220.726 328.654 C 220.925 327.885,221.350 327.346,221.825 327.259 C 223.007 327.043,224.000 325.983,224.000 324.938 C 224.000 324.211,224.219 324.000,224.971 324.000 C 226.592 324.000,227.200 323.007,227.200 320.361 C 227.200 318.029,227.225 317.975,228.414 317.737 C 229.965 317.427,230.400 316.581,230.400 313.876 C 230.400 311.776,230.442 311.692,231.607 311.459 C 233.506 311.079,233.600 310.308,233.594 295.274 C 233.588 280.190,233.498 279.506,231.491 279.273 C 230.440 279.151,230.400 279.060,230.400 276.773 C 230.400 274.193,229.559 272.800,228.000 272.800 C 227.296 272.800,227.200 272.533,227.200 270.574 C 227.200 267.829,226.754 266.941,225.203 266.601 C 224.291 266.400,224.000 266.114,224.000 265.417 C 224.000 264.390,223.396 263.760,222.200 263.538 C 221.539 263.415,221.346 262.939,221.087 260.795 C 220.767 258.142,220.151 257.200,218.735 257.200 C 218.266 257.200,217.910 256.756,217.692 255.900 C 217.443 254.920,217.055 254.508,216.118 254.228 C 215.223 253.960,214.777 253.515,214.526 252.639 C 214.275 251.766,213.834 251.325,212.961 251.074 C 212.085 250.823,211.640 250.377,211.372 249.482 C 211.099 248.570,210.676 248.156,209.786 247.930 C 208.875 247.699,208.475 247.294,208.186 246.311 C 207.865 245.222,207.580 244.979,206.500 244.875 C 205.361 244.765,205.200 244.606,205.200 243.589 C 205.200 242.095,204.268 241.600,201.458 241.600 C 199.344 241.600,199.254 241.556,198.999 240.397 C 198.630 238.716,197.779 238.400,193.626 238.400 C 190.533 238.400,189.882 238.518,189.200 239.200 " stroke="none" fill="#ffffff" fill-rule="evenodd"></path></g></svg>