<svg id="Layer_1" data-name="Layer 1" xmlns="http://www.w3.org/2000/svg" width="38.997" height="38.808" viewBox="0 0 38.997 38.808"><title>Logo-smoke</title><path d="M778.435,625.646h.718l.054-.678h3.446l.078.662h.693a1.848,1.848,0,0,1,2.087-1.424,6.86,6.86,0,0,0,1.442-.063,2.981,2.981,0,0,0,2.733-3.323,13.787,13.787,0,0,0-.961-4.712c-1.436-4.041-2.948-8.056-4.33-12.115-.885-2.6-1.653-5.245-2.348-7.9a4.207,4.207,0,0,1,.255-3.4,1.967,1.967,0,0,1,2-.936,19.541,19.541,0,1,1-7.321.151,3.065,3.065,0,0,1,1.469-.06,2.356,2.356,0,0,1,1.573,2.627,17.834,17.834,0,0,1-1.079,5.132c-2.013,5.818-4.092,11.614-6.059,17.447a13.638,13.638,0,0,0-.657,3.907A2.955,2.955,0,0,0,775.3,624.2c.42.031.844.01,1.266.007A1.77,1.77,0,0,1,778.435,625.646Z" transform="translate(-761.507 -591.73)"/><path d="M781.645,623.712a3.688,3.688,0,0,0-.42-4.985c-1.688,1.374-2.3,2.972-.808,4.994a3.281,3.281,0,0,1-2.254-4.274,17.114,17.114,0,0,1,1.056-1.948c.43-.8.848-1.6,1.308-2.472a1.08,1.08,0,0,1,.333.145,7.268,7.268,0,0,1,3.1,4.3A3.517,3.517,0,0,1,781.645,623.712Z" transform="translate(-761.507 -591.73)"/><path d="M780.95,614.38c.3-.37.58-.677.819-1.014a2.724,2.724,0,0,0,.242-2.916c-.313-.651-.736-1.249-1.1-1.875-.446-.767-.947-1.509-1.313-2.313a3.251,3.251,0,0,1,1.535-4.606c-.155.164-.312.327-.467.492a2.761,2.761,0,0,0-.525,3.494c.309.608.75,1.148,1.082,1.746a20.115,20.115,0,0,1,1.431,2.789A3.441,3.441,0,0,1,780.95,614.38Z" transform="translate(-761.507 -591.73)"/><path d="M779.123,613.186c1.281-1.621,1.389-2.382.6-3.75-.2-.349-.452-.668-.657-1.014a19.1,19.1,0,0,1-1.039-1.841c-.7-1.55-.275-2.794,1.327-3.8-.128.166-.164.221-.208.268-1.161,1.247-1.237,2.1-.341,3.575a26.207,26.207,0,0,1,1.635,2.816C781.093,610.9,780.614,612.2,779.123,613.186Z" transform="translate(-761.507 -591.73)"/><path d="M782.839,602.994c-.106.12-.209.24-.317.358a2.194,2.194,0,0,0-.38,2.679c.248.482.588.915.854,1.389a17.525,17.525,0,0,1,1.176,2.24,2.679,2.679,0,0,1-1.117,3.314,1.562,1.562,0,0,1,.14-.3,2.419,2.419,0,0,0,.3-3.018c-.342-.616-.77-1.182-1.133-1.787a11.585,11.585,0,0,1-.7-1.338A2.54,2.54,0,0,1,782.839,602.994Z" transform="translate(-761.507 -591.73)"/></svg>