<?xml version="1.0" standalone="no"?>
<!DOCTYPE svg PUBLIC "-//W3C//DTD SVG 20010904//EN"
 "http://www.w3.org/TR/2001/REC-SVG-20010904/DTD/svg10.dtd">
<svg version="1.0" xmlns="http://www.w3.org/2000/svg"
 width="288.000000pt" height="288.000000pt" viewBox="0 0 288.000000 288.000000"
 preserveAspectRatio="xMidYMid meet">
<metadata>
Created by potrace 1.11, written by Peter Selinger 2001-2013
</metadata>
<g transform="translate(0.000000,288.000000) scale(0.100000,-0.100000)"
fill="#000000" stroke="none">
<path d="M1190 2870 c-8 -4 -55 -17 -105 -29 -455 -111 -857 -487 -1013 -946
-53 -157 -66 -242 -66 -430 0 -93 3 -181 6 -195 3 -14 9 -45 13 -70 31 -198
165 -498 290 -649 150 -182 300 -304 482 -393 56 -27 108 -51 115 -52 7 -2 22
-6 33 -10 55 -21 77 -27 158 -46 48 -11 111 -22 140 -25 65 -6 94 -12 109 -21
7 -4 8 -3 4 4 -4 7 -2 12 3 12 6 0 11 -3 11 -7 0 -5 42 -8 94 -8 52 0 92 3 89
8 -2 4 11 7 30 7 45 0 197 27 261 46 335 101 591 287 779 567 82 122 167 305
199 427 5 19 14 53 19 75 26 99 37 217 34 360 -4 155 -6 179 -31 280 -77 309
-256 587 -509 792 -186 150 -393 248 -628 297 -66 13 -69 13 -115 -10 -117
-58 -125 -167 -37 -501 56 -211 95 -329 257 -763 111 -297 219 -624 235 -709
2 -14 6 -28 9 -33 3 -4 7 -41 9 -82 5 -91 -12 -156 -54 -207 -46 -55 -91 -72
-197 -74 -108 -1 -158 -20 -192 -70 -26 -41 -52 -46 -52 -10 l0 25 -129 0
-130 0 -13 -27 c-16 -32 -38 -42 -38 -16 -1 27 -34 61 -77 79 -22 10 -75 17
-131 19 -123 5 -172 31 -217 119 -50 98 -39 214 42 471 60 191 90 276 223 630
72 194 135 369 146 405 2 8 24 83 48 165 102 349 108 474 23 553 -29 27 -106
53 -127 42z"/>
<path d="M1384 1143 c-16 -52 -44 -106 -89 -178 -63 -98 -85 -153 -85 -208 0
-94 61 -197 140 -237 48 -24 55 -11 24 45 -47 86 -36 179 31 252 42 47 43 48
63 30 11 -10 30 -41 42 -70 28 -64 25 -153 -8 -215 -27 -53 -27 -52 2 -52 37
0 119 80 146 142 63 146 -23 351 -201 482 -42 30 -58 33 -65 9z"/>
</g>
</svg>
